<mxfile host="app.diagrams.net" modified="2020-08-04T02:57:39.745Z" agent="5.0 (Windows NT 10.0; WOW64) AppleWebKit/537.36 (KHTML, like Gecko) Chrome/78.0.3904.108 Safari/537.36" etag="npH2SkppBzNXQ23vFVFf" version="13.5.9" type="github">
  <diagram id="jPpRGskIPkcE2uzXI3Ox" name="Page-1">
    <mxGraphModel dx="982" dy="508" grid="0" gridSize="10" guides="1" tooltips="1" connect="1" arrows="1" fold="1" page="1" pageScale="1" pageWidth="827" pageHeight="1169" math="0" shadow="0">
      <root>
        <mxCell id="0" />
        <mxCell id="1" parent="0" />
        <mxCell id="0y_qTDMvqfY7tOif_lxe-20" value="&lt;font style=&quot;font-size: 16px&quot;&gt;Var&lt;br&gt;Data&lt;/font&gt;" style="shape=cube;whiteSpace=wrap;html=1;boundedLbl=1;backgroundOutline=1;darkOpacity=0.05;darkOpacity2=0.1;size=15;fontColor=#ffffff;fillColor=#FF99CC;" vertex="1" parent="1">
          <mxGeometry x="615" y="160" width="67" height="74" as="geometry" />
        </mxCell>
        <mxCell id="0y_qTDMvqfY7tOif_lxe-17" value="&lt;b&gt;&lt;font style=&quot;font-size: 26px&quot;&gt;...&lt;/font&gt;&lt;/b&gt;" style="shape=cube;whiteSpace=wrap;html=1;boundedLbl=1;backgroundOutline=1;darkOpacity=0.05;darkOpacity2=0.1;size=15;fontColor=#ffffff;fillColor=#FF99CC;" vertex="1" parent="1">
          <mxGeometry x="534" y="160" width="96" height="74" as="geometry" />
        </mxCell>
        <mxCell id="0y_qTDMvqfY7tOif_lxe-19" value="&lt;font style=&quot;font-size: 16px&quot;&gt;Var&lt;br&gt;Data&lt;/font&gt;" style="shape=cube;whiteSpace=wrap;html=1;boundedLbl=1;backgroundOutline=1;darkOpacity=0.05;darkOpacity2=0.1;size=15;fontColor=#ffffff;fillColor=#FF99CC;" vertex="1" parent="1">
          <mxGeometry x="482" y="160" width="67" height="74" as="geometry" />
        </mxCell>
        <mxCell id="0y_qTDMvqfY7tOif_lxe-18" value="&lt;font style=&quot;font-size: 16px&quot;&gt;Var&lt;br&gt;Data&lt;/font&gt;" style="shape=cube;whiteSpace=wrap;html=1;boundedLbl=1;backgroundOutline=1;darkOpacity=0.05;darkOpacity2=0.1;size=15;fontColor=#ffffff;fillColor=#FF99CC;" vertex="1" parent="1">
          <mxGeometry x="430" y="160" width="67" height="74" as="geometry" />
        </mxCell>
        <mxCell id="qrgT6LWYeYJ7EWXtyItj-3" value="&lt;font style=&quot;font-size: 16px&quot;&gt;Var Num&lt;/font&gt;" style="shape=cube;whiteSpace=wrap;html=1;boundedLbl=1;backgroundOutline=1;darkOpacity=0.05;darkOpacity2=0.1;size=15;fillColor=#ffcccc;strokeColor=#36393d;" parent="1" vertex="1">
          <mxGeometry x="314" y="160" width="131" height="74" as="geometry" />
        </mxCell>
        <mxCell id="qrgT6LWYeYJ7EWXtyItj-1" value="&lt;font style=&quot;font-size: 16px&quot;&gt;Model ID&lt;/font&gt;" style="shape=cube;whiteSpace=wrap;html=1;boundedLbl=1;backgroundOutline=1;darkOpacity=0.05;darkOpacity2=0.1;size=15;fillColor=#7EA6E0;" parent="1" vertex="1">
          <mxGeometry x="207" y="160" width="122" height="74" as="geometry" />
        </mxCell>
        <mxCell id="qrgT6LWYeYJ7EWXtyItj-2" value="&lt;font style=&quot;font-size: 16px&quot;&gt;SimData&lt;/font&gt;" style="shape=cube;whiteSpace=wrap;html=1;boundedLbl=1;backgroundOutline=1;darkOpacity=0.05;darkOpacity2=0.1;size=15;fillColor=#B9E0A5;" parent="1" vertex="1">
          <mxGeometry x="102" y="160" width="122" height="74" as="geometry" />
        </mxCell>
        <mxCell id="0y_qTDMvqfY7tOif_lxe-3" value="" style="group" vertex="1" connectable="0" parent="1">
          <mxGeometry x="131" y="240" width="84" height="39" as="geometry" />
        </mxCell>
        <mxCell id="0y_qTDMvqfY7tOif_lxe-1" value="" style="shape=partialRectangle;whiteSpace=wrap;html=1;bottom=1;right=1;left=1;top=0;fillColor=none;routingCenterX=-0.5;strokeColor=#1A1A1A;" vertex="1" parent="0y_qTDMvqfY7tOif_lxe-3">
          <mxGeometry width="84" height="19" as="geometry" />
        </mxCell>
        <mxCell id="0y_qTDMvqfY7tOif_lxe-2" value="" style="line;strokeWidth=1;direction=south;html=1;fillColor=#F19C99;" vertex="1" parent="0y_qTDMvqfY7tOif_lxe-3">
          <mxGeometry x="37" y="19" width="10" height="20" as="geometry" />
        </mxCell>
        <mxCell id="0y_qTDMvqfY7tOif_lxe-4" value="" style="group" vertex="1" connectable="0" parent="1">
          <mxGeometry x="236" y="240" width="84" height="39" as="geometry" />
        </mxCell>
        <mxCell id="0y_qTDMvqfY7tOif_lxe-5" value="" style="shape=partialRectangle;whiteSpace=wrap;html=1;bottom=1;right=1;left=1;top=0;fillColor=none;routingCenterX=-0.5;strokeColor=#1A1A1A;" vertex="1" parent="0y_qTDMvqfY7tOif_lxe-4">
          <mxGeometry width="84" height="19" as="geometry" />
        </mxCell>
        <mxCell id="0y_qTDMvqfY7tOif_lxe-6" value="" style="line;strokeWidth=1;direction=south;html=1;fillColor=#F19C99;" vertex="1" parent="0y_qTDMvqfY7tOif_lxe-4">
          <mxGeometry x="37" y="19" width="10" height="20" as="geometry" />
        </mxCell>
        <mxCell id="0y_qTDMvqfY7tOif_lxe-10" value="1Byte" style="text;html=1;strokeColor=none;fillColor=none;align=center;verticalAlign=middle;whiteSpace=wrap;rounded=0;" vertex="1" parent="1">
          <mxGeometry x="153" y="282" width="40" height="20" as="geometry" />
        </mxCell>
        <mxCell id="0y_qTDMvqfY7tOif_lxe-11" value="4Byte" style="text;html=1;strokeColor=none;fillColor=none;align=center;verticalAlign=middle;whiteSpace=wrap;rounded=0;" vertex="1" parent="1">
          <mxGeometry x="260" y="282" width="40" height="20" as="geometry" />
        </mxCell>
        <mxCell id="0y_qTDMvqfY7tOif_lxe-13" value="" style="group" vertex="1" connectable="0" parent="1">
          <mxGeometry x="345" y="240" width="84" height="39" as="geometry" />
        </mxCell>
        <mxCell id="0y_qTDMvqfY7tOif_lxe-14" value="" style="shape=partialRectangle;whiteSpace=wrap;html=1;bottom=1;right=1;left=1;top=0;fillColor=none;routingCenterX=-0.5;strokeColor=#1A1A1A;" vertex="1" parent="0y_qTDMvqfY7tOif_lxe-13">
          <mxGeometry width="84" height="19" as="geometry" />
        </mxCell>
        <mxCell id="0y_qTDMvqfY7tOif_lxe-15" value="" style="line;strokeWidth=1;direction=south;html=1;fillColor=#F19C99;" vertex="1" parent="0y_qTDMvqfY7tOif_lxe-13">
          <mxGeometry x="37" y="19" width="10" height="20" as="geometry" />
        </mxCell>
        <mxCell id="0y_qTDMvqfY7tOif_lxe-16" value="4Byte" style="text;html=1;strokeColor=none;fillColor=none;align=center;verticalAlign=middle;whiteSpace=wrap;rounded=0;" vertex="1" parent="1">
          <mxGeometry x="369" y="282" width="40" height="20" as="geometry" />
        </mxCell>
        <mxCell id="0y_qTDMvqfY7tOif_lxe-21" value="" style="group" vertex="1" connectable="0" parent="1">
          <mxGeometry x="454" y="240" width="221" height="39" as="geometry" />
        </mxCell>
        <mxCell id="0y_qTDMvqfY7tOif_lxe-22" value="" style="shape=partialRectangle;whiteSpace=wrap;html=1;bottom=1;right=1;left=1;top=0;fillColor=none;routingCenterX=-0.5;strokeColor=#1A1A1A;" vertex="1" parent="0y_qTDMvqfY7tOif_lxe-21">
          <mxGeometry width="221" height="19" as="geometry" />
        </mxCell>
        <mxCell id="0y_qTDMvqfY7tOif_lxe-23" value="" style="line;strokeWidth=1;direction=south;html=1;fillColor=#F19C99;" vertex="1" parent="0y_qTDMvqfY7tOif_lxe-21">
          <mxGeometry x="97.34523809523809" y="19" width="26.30952380952381" height="20" as="geometry" />
        </mxCell>
        <mxCell id="0y_qTDMvqfY7tOif_lxe-24" value="Var Num" style="text;html=1;strokeColor=none;fillColor=none;align=center;verticalAlign=middle;whiteSpace=wrap;rounded=0;" vertex="1" parent="1">
          <mxGeometry x="540" y="282" width="51" height="20" as="geometry" />
        </mxCell>
        <mxCell id="0y_qTDMvqfY7tOif_lxe-27" value="&lt;span style=&quot;font-size: 16px&quot;&gt;&lt;font color=&quot;#ffffff&quot;&gt;Var Value&lt;/font&gt;&lt;/span&gt;" style="shape=cube;whiteSpace=wrap;html=1;boundedLbl=1;backgroundOutline=1;darkOpacity=0.05;darkOpacity2=0.1;size=15;strokeColor=#996185;fillColor=#e6d0de;gradientColor=#d5739d;" vertex="1" parent="1">
          <mxGeometry x="441" y="49" width="139" height="74" as="geometry" />
        </mxCell>
        <mxCell id="0y_qTDMvqfY7tOif_lxe-26" value="&lt;span style=&quot;font-size: 16px&quot;&gt;&lt;font color=&quot;#ffffff&quot;&gt;Var Size&lt;/font&gt;&lt;/span&gt;" style="shape=cube;whiteSpace=wrap;html=1;boundedLbl=1;backgroundOutline=1;darkOpacity=0.05;darkOpacity2=0.1;size=15;strokeColor=#996185;fillColor=#e6d0de;gradientColor=#d5739d;" vertex="1" parent="1">
          <mxGeometry x="373" y="49" width="84" height="74" as="geometry" />
        </mxCell>
        <mxCell id="0y_qTDMvqfY7tOif_lxe-25" value="&lt;span style=&quot;font-size: 16px&quot;&gt;&lt;font color=&quot;#ffffff&quot;&gt;Var ID&lt;/font&gt;&lt;/span&gt;" style="shape=cube;whiteSpace=wrap;html=1;boundedLbl=1;backgroundOutline=1;darkOpacity=0.05;darkOpacity2=0.1;size=15;strokeColor=#996185;fillColor=#e6d0de;gradientColor=#d5739d;" vertex="1" parent="1">
          <mxGeometry x="321" y="49" width="67" height="74" as="geometry" />
        </mxCell>
        <mxCell id="0y_qTDMvqfY7tOif_lxe-30" value="" style="endArrow=none;html=1;exitX=0;exitY=0;exitDx=131;exitDy=15;exitPerimeter=0;entryX=0;entryY=0;entryDx=15;entryDy=74;entryPerimeter=0;" edge="1" parent="1" source="qrgT6LWYeYJ7EWXtyItj-3" target="0y_qTDMvqfY7tOif_lxe-25">
          <mxGeometry width="50" height="50" relative="1" as="geometry">
            <mxPoint x="326" y="175" as="sourcePoint" />
            <mxPoint x="376" y="125" as="targetPoint" />
          </mxGeometry>
        </mxCell>
        <mxCell id="0y_qTDMvqfY7tOif_lxe-31" value="" style="endArrow=none;html=1;exitX=0;exitY=0;exitDx=67;exitDy=15;exitPerimeter=0;" edge="1" parent="1" source="0y_qTDMvqfY7tOif_lxe-18">
          <mxGeometry width="50" height="50" relative="1" as="geometry">
            <mxPoint x="476" y="179" as="sourcePoint" />
            <mxPoint x="580" y="124" as="targetPoint" />
          </mxGeometry>
        </mxCell>
      </root>
    </mxGraphModel>
  </diagram>
</mxfile>
